<?xml version="1.0" encoding="UTF-8"?>
<!DOCTYPE svg PUBLIC "-//W3C//DTD SVG 1.1//EN" "http://www.w3.org/Graphics/SVG/1.1/DTD/svg11.dtd">
<svg xmlns="http://www.w3.org/2000/svg" version="1.1" width="284px" height="305px" style="shape-rendering:geometricPrecision; text-rendering:geometricPrecision; image-rendering:optimizeQuality; fill-rule:evenodd; clip-rule:evenodd" xmlns:xlink="http://www.w3.org/1999/xlink">
<g><path style="opacity:1" fill="#effefe" d="M -0.5,-0.5 C 94.1667,-0.5 188.833,-0.5 283.5,-0.5C 283.5,101.167 283.5,202.833 283.5,304.5C 188.833,304.5 94.1667,304.5 -0.5,304.5C -0.5,202.833 -0.5,101.167 -0.5,-0.5 Z"/></g>
<g><path style="opacity:1" fill="#e8f6f6" d="M 159.5,33.5 C 157.833,33.5 156.167,33.5 154.5,33.5C 149.058,21.9037 140.058,14.4037 127.5,11C 112.886,7.58572 98.5523,8.58572 84.5,14C 70.5156,22.4476 63.0156,34.9476 62,51.5C 61.3333,119.5 61.3333,187.5 62,255.5C 65.663,283.652 81.8297,297.985 110.5,298.5C 139.17,297.985 155.337,283.652 159,255.5C 159.5,229.502 159.667,203.502 159.5,177.5C 161.167,177.5 162.833,177.5 164.5,177.5C 164.902,206.19 164.402,234.857 163,263.5C 158.829,285.004 145.996,297.837 124.5,302C 106.61,305.115 89.943,302.115 74.5,293C 62.8563,282.086 57.0229,268.586 57,252.5C 56.3333,186.5 56.3333,120.5 57,54.5C 58.8988,20.7676 76.7321,4.10089 110.5,4.5C 127.723,3.367 142.223,9.03367 154,21.5C 156.656,25.1438 158.489,29.1438 159.5,33.5 Z"/></g>
<g><path style="opacity:1" fill="#ddebeb" d="M 154.5,33.5 C 151.5,33.5 148.5,33.5 145.5,33.5C 136.983,21.743 125.316,16.0763 110.5,16.5C 82.9915,17.51 69.1582,31.8433 69,59.5C 68.3333,122.167 68.3333,184.833 69,247.5C 70.1949,278.693 86.3616,292.859 117.5,290C 136.871,287.629 148.038,276.795 151,257.5C 152.404,230.859 152.904,204.193 152.5,177.5C 154.833,177.5 157.167,177.5 159.5,177.5C 159.667,203.502 159.5,229.502 159,255.5C 155.337,283.652 139.17,297.985 110.5,298.5C 81.8297,297.985 65.663,283.652 62,255.5C 61.3333,187.5 61.3333,119.5 62,51.5C 63.0156,34.9476 70.5156,22.4476 84.5,14C 98.5523,8.58572 112.886,7.58572 127.5,11C 140.058,14.4037 149.058,21.9037 154.5,33.5 Z"/></g>
<g><path style="opacity:1" fill="#ccd9d9" d="M 145.5,33.5 C 143.167,33.5 140.833,33.5 138.5,33.5C 131.057,25.4518 121.723,21.4518 110.5,21.5C 87.1292,22.7045 74.9625,35.0378 74,58.5C 73.3333,121.833 73.3333,185.167 74,248.5C 77.087,277.145 92.9203,288.979 121.5,284C 135.632,280.199 143.798,271.033 146,256.5C 147.425,230.197 147.925,203.864 147.5,177.5C 149.167,177.5 150.833,177.5 152.5,177.5C 152.904,204.193 152.404,230.859 151,257.5C 148.038,276.795 136.871,287.629 117.5,290C 86.3616,292.859 70.1949,278.693 69,247.5C 68.3333,184.833 68.3333,122.167 69,59.5C 69.1582,31.8433 82.9915,17.51 110.5,16.5C 125.316,16.0763 136.983,21.743 145.5,33.5 Z"/></g>
<g><path style="opacity:1" fill="#b6c2c2" d="M 138.5,33.5 C 134.833,33.5 131.167,33.5 127.5,33.5C 126.251,31.8639 124.584,30.6972 122.5,30C 114.5,28 106.5,28 98.5,30C 96.4156,30.6972 94.7489,31.8639 93.5,33.5C 91.1667,33.5 88.8333,33.5 86.5,33.5C 86.5,36.1667 86.5,38.8333 86.5,41.5C 85.5041,41.4142 84.6708,41.7476 84,42.5C 81.2955,48.5423 79.9622,54.8757 80,61.5C 79.3333,124.167 79.3333,186.833 80,249.5C 80.719,254.658 82.0524,259.658 84,264.5C 84.6708,265.252 85.5041,265.586 86.5,265.5C 86.5,268.167 86.5,270.833 86.5,273.5C 93.1238,279.798 101.124,282.798 110.5,282.5C 119.876,282.798 127.876,279.798 134.5,273.5C 134.5,270.833 134.5,268.167 134.5,265.5C 135.496,265.586 136.329,265.252 137,264.5C 138.948,259.658 140.281,254.658 141,249.5C 141.5,225.502 141.667,201.502 141.5,177.5C 143.5,177.5 145.5,177.5 147.5,177.5C 147.925,203.864 147.425,230.197 146,256.5C 143.798,271.033 135.632,280.199 121.5,284C 92.9203,288.979 77.087,277.145 74,248.5C 73.3333,185.167 73.3333,121.833 74,58.5C 74.9625,35.0378 87.1292,22.7045 110.5,21.5C 121.723,21.4518 131.057,25.4518 138.5,33.5 Z"/></g>
<g><path style="opacity:1" fill="#97a0a0" d="M 127.5,33.5 C 116.167,33.5 104.833,33.5 93.5,33.5C 94.7489,31.8639 96.4156,30.6972 98.5,30C 106.5,28 114.5,28 122.5,30C 124.584,30.6972 126.251,31.8639 127.5,33.5 Z"/></g>
<g><path style="opacity:1" fill="#e40913" d="M 93.5,33.5 C 104.833,33.5 116.167,33.5 127.5,33.5C 131.167,33.5 134.833,33.5 138.5,33.5C 140.833,33.5 143.167,33.5 145.5,33.5C 148.5,33.5 151.5,33.5 154.5,33.5C 156.167,33.5 157.833,33.5 159.5,33.5C 177.833,33.5 196.167,33.5 214.5,33.5C 214.5,49.5 214.5,65.5 214.5,81.5C 194.5,81.5 174.5,81.5 154.5,81.5C 151.833,81.5 149.167,81.5 146.5,81.5C 143.833,81.5 141.167,81.5 138.5,81.5C 137.167,81.5 135.833,81.5 134.5,81.5C 134.5,97.5 134.5,113.5 134.5,129.5C 135.833,129.5 137.167,129.5 138.5,129.5C 141.167,129.5 143.833,129.5 146.5,129.5C 149.167,129.5 151.833,129.5 154.5,129.5C 174.5,129.5 194.5,129.5 214.5,129.5C 214.5,145.5 214.5,161.5 214.5,177.5C 197.833,177.5 181.167,177.5 164.5,177.5C 162.833,177.5 161.167,177.5 159.5,177.5C 157.167,177.5 154.833,177.5 152.5,177.5C 150.833,177.5 149.167,177.5 147.5,177.5C 145.5,177.5 143.5,177.5 141.5,177.5C 140.5,177.5 139.5,177.5 138.5,177.5C 137.167,177.5 135.833,177.5 134.5,177.5C 134.5,205.5 134.5,233.5 134.5,261.5C 134.5,262.833 134.5,264.167 134.5,265.5C 134.5,268.167 134.5,270.833 134.5,273.5C 118.5,273.5 102.5,273.5 86.5,273.5C 86.5,270.833 86.5,268.167 86.5,265.5C 86.5,261.833 86.5,258.167 86.5,254.5C 86.5,186.167 86.5,117.833 86.5,49.5C 86.5,46.8333 86.5,44.1667 86.5,41.5C 86.5,38.8333 86.5,36.1667 86.5,33.5C 88.8333,33.5 91.1667,33.5 93.5,33.5 Z"/></g>
<g><path style="opacity:1" fill="#828a8a" d="M 86.5,49.5 C 86.5,117.833 86.5,186.167 86.5,254.5C 85.0735,252.852 84.2401,250.852 84,248.5C 83.3333,185.167 83.3333,121.833 84,58.5C 84.2037,55.2026 85.037,52.2026 86.5,49.5 Z"/></g>
<g><path style="opacity:1" fill="#96a0a0" d="M 86.5,41.5 C 86.5,44.1667 86.5,46.8333 86.5,49.5C 85.037,52.2026 84.2037,55.2026 84,58.5C 83.3333,121.833 83.3333,185.167 84,248.5C 84.2401,250.852 85.0735,252.852 86.5,254.5C 86.5,258.167 86.5,261.833 86.5,265.5C 85.5041,265.586 84.6708,265.252 84,264.5C 82.0524,259.658 80.719,254.658 80,249.5C 79.3333,186.833 79.3333,124.167 80,61.5C 79.9622,54.8757 81.2955,48.5423 84,42.5C 84.6708,41.7476 85.5041,41.4142 86.5,41.5 Z"/></g>
<g><path style="opacity:1" fill="#879090" d="M 138.5,81.5 C 138.5,97.5 138.5,113.5 138.5,129.5C 137.167,129.5 135.833,129.5 134.5,129.5C 134.5,113.5 134.5,97.5 134.5,81.5C 135.833,81.5 137.167,81.5 138.5,81.5 Z"/></g>
<g><path style="opacity:1" fill="#aeb9b9" d="M 138.5,81.5 C 141.167,81.5 143.833,81.5 146.5,81.5C 146.5,97.5 146.5,113.5 146.5,129.5C 143.833,129.5 141.167,129.5 138.5,129.5C 138.5,113.5 138.5,97.5 138.5,81.5 Z"/></g>
<g><path style="opacity:1" fill="#d0dddd" d="M 146.5,81.5 C 149.167,81.5 151.833,81.5 154.5,81.5C 154.5,97.5 154.5,113.5 154.5,129.5C 151.833,129.5 149.167,129.5 146.5,129.5C 146.5,113.5 146.5,97.5 146.5,81.5 Z"/></g>
<g><path style="opacity:1" fill="#889191" d="M 138.5,177.5 C 138.667,201.502 138.5,225.502 138,249.5C 137.707,253.868 136.54,257.868 134.5,261.5C 134.5,233.5 134.5,205.5 134.5,177.5C 135.833,177.5 137.167,177.5 138.5,177.5 Z"/></g>
<g><path style="opacity:1" fill="#9aa4a4" d="M 138.5,177.5 C 139.5,177.5 140.5,177.5 141.5,177.5C 141.667,201.502 141.5,225.502 141,249.5C 140.281,254.658 138.948,259.658 137,264.5C 136.329,265.252 135.496,265.586 134.5,265.5C 134.5,264.167 134.5,262.833 134.5,261.5C 136.54,257.868 137.707,253.868 138,249.5C 138.5,225.502 138.667,201.502 138.5,177.5 Z"/></g>
<g><path style="opacity:1" fill="#a7b2b2" d="M 86.5,273.5 C 102.5,273.5 118.5,273.5 134.5,273.5C 127.876,279.798 119.876,282.798 110.5,282.5C 101.124,282.798 93.1238,279.798 86.5,273.5 Z"/></g>
</svg>
