<?xml version="1.0" standalone="no"?>
<!DOCTYPE svg PUBLIC "-//W3C//DTD SVG 20010904//EN"
 "http://www.w3.org/TR/2001/REC-SVG-20010904/DTD/svg10.dtd">
<svg version="1.0" xmlns="http://www.w3.org/2000/svg"
 width="900.000000pt" height="900.000000pt" viewBox="0 0 900.000000 900.000000"
 preserveAspectRatio="xMidYMid meet">

<g transform="translate(0.000000,900.000000) scale(0.100000,-0.100000)"
fill="#000000" stroke="none">
<path d="M0 4500 l0 -4500 4500 0 4500 0 0 4500 0 4500 -4500 0 -4500 0 0
-4500z m2143 1361 c54 -13 170 -86 213 -133 71 -80 110 -152 129 -242 61 -292
-115 -559 -408 -616 -55 -11 -84 -12 -153 -2 -47 7 -93 17 -102 21 -9 5 -39
20 -67 32 -114 54 -223 195 -259 335 -62 241 78 502 319 594 98 37 208 41 328
11z m5422 -1 c83 -29 170 -85 234 -152 26 -27 82 -124 98 -170 22 -60 29 -226
13 -285 -35 -129 -121 -247 -230 -315 -106 -66 -252 -94 -355 -68 -135 34
-201 72 -283 159 -87 91 -132 202 -134 328 -3 233 124 417 345 499 84 31 228
33 312 4z m233 -2734 c69 -36 122 -121 122 -197 0 -93 -35 -131 -203 -226
-139 -78 -529 -253 -564 -253 -6 0 -23 -6 -39 -14 -71 -35 -442 -139 -594
-166 -25 -5 -81 -16 -125 -24 -204 -41 -360 -55 -670 -63 -238 -6 -362 1 -590
32 -153 21 -336 60 -465 100 -41 13 -106 33 -145 45 -38 11 -110 37 -160 56
-97 38 -95 37 -205 87 -41 18 -94 42 -117 52 -24 10 -43 22 -43 27 0 4 -6 8
-13 8 -27 0 -148 87 -178 128 -26 35 -32 53 -32 95 -1 66 38 144 90 184 33 25
44 28 113 28 73 0 124 -14 205 -58 86 -47 219 -108 330 -152 39 -16 75 -31 80
-35 6 -4 37 -15 70 -24 33 -10 80 -24 105 -33 83 -28 193 -52 400 -86 319 -54
749 -48 1115 14 192 33 597 142 720 194 17 7 73 29 125 50 112 45 199 84 375
170 72 34 141 68 155 74 30 13 100 7 138 -13z"/>
</g>
</svg>
